<?xml version="1.0" standalone="no"?>
<!DOCTYPE svg PUBLIC "-//W3C//DTD SVG 20010904//EN"
 "http://www.w3.org/TR/2001/REC-SVG-20010904/DTD/svg10.dtd">
<svg version="1.0" xmlns="http://www.w3.org/2000/svg"
 width="700.000000pt" height="700.000000pt" viewBox="0 0 700.000000 700.000000"
 preserveAspectRatio="xMidYMid meet">
<metadata>
Created by potrace 1.11, written by Peter Selinger 2001-2013
</metadata>
<g transform="translate(0.000000,700.000000) scale(0.100000,-0.100000)"
fill="#000000" stroke="none">
<path d="M2 3913 l3 -2678 407 1 408 0 0 -414 0 -413 309 2 c306 1 309 1 319
22 35 73 322 754 322 764 0 39 -33 39 1734 38 1031 -1 1700 -5 1705 -11 5 -5
28 -54 51 -109 24 -55 52 -122 65 -150 12 -27 70 -164 130 -302 l108 -253 308
0 309 0 2 412 3 412 408 0 407 -1 0 2679 0 2678 -3500 0 -3500 0 2 -2677z"/>
</g>
</svg>
