<?xml version="1.0" standalone="no"?>
<!DOCTYPE svg PUBLIC "-//W3C//DTD SVG 20010904//EN"
 "http://www.w3.org/TR/2001/REC-SVG-20010904/DTD/svg10.dtd">
<svg version="1.0" xmlns="http://www.w3.org/2000/svg"
 width="512.000000pt" height="512.000000pt" viewBox="0 0 512.000000 512.000000"
 preserveAspectRatio="xMidYMid meet">
<metadata>
Created by potrace 1.11, written by Peter Selinger 2001-2013
</metadata>
<g transform="translate(0.000000,512.000000) scale(0.100000,-0.100000)"
fill="#000000" stroke="none">
<path d="M2 2863 l3 -1958 295 0 295 0 3 -303 2 -302 227 2 227 3 33 80 c19
44 40 94 47 110 8 17 49 111 91 210 43 99 81 185 86 190 9 12 2488 10 2500 -2
4 -5 53 -116 109 -248 56 -132 113 -264 126 -292 l24 -53 225 0 225 0 0 300 0
300 28 0 c15 1 150 1 300 1 l272 0 0 1960 0 1959 -2560 0 -2560 0 2 -1957z"/>
</g>
</svg>
